<svg width="1024" height="1024" viewBox="0 0 1024 1024" fill="none" xmlns="http://www.w3.org/2000/svg">
  <rect width="1024" height="1024" rx="200" fill="#007AFF"/>
  <path d="M256 320C185.3 320 128 377.3 128 448V832C128 902.7 185.3 960 256 960H896C966.7 960 1024 902.7 1024 832V640C1024 569.3 966.7 512 896 512H288C270.3 512 256 497.7 256 480C256 462.3 270.3 448 288 448H896C931.3 448 960 419.3 960 384C960 348.7 931.3 320 896 320H256ZM832 768C796.7 768 768 739.3 768 704C768 668.7 796.7 640 832 640C867.3 640 896 668.7 896 704C896 739.3 867.3 768 832 768Z" fill="white"/>
</svg>
